<svg width="16" height="16" viewBox="0 0 16 16" fill="none" xmlns="http://www.w3.org/2000/svg">
<path fill-rule="evenodd" clip-rule="evenodd" d="M2.7968 2.79717C2.97037 2.6236 3.25177 2.6236 3.42534 2.79717L7.99996 7.37179L12.5746 2.79717C12.7481 2.6236 13.0296 2.6236 13.2031 2.79717C13.3767 2.97073 13.3767 3.25214 13.2031 3.42571L8.6285 8.00033L13.2031 12.5749C13.3767 12.7485 13.3767 13.0299 13.2031 13.2035C13.0296 13.3771 12.7481 13.3771 12.5746 13.2035L7.99996 8.62886L3.42534 13.2035C3.25177 13.3771 2.97037 13.3771 2.7968 13.2035C2.62323 13.0299 2.62323 12.7485 2.7968 12.5749L7.37142 8.00033L2.7968 3.42571C2.62323 3.25214 2.62323 2.97073 2.7968 2.79717Z" fill="#DD1111"/>
</svg>
