<svg width="16" height="16" viewBox="0 0 16 16" fill="none" xmlns="http://www.w3.org/2000/svg">
<path d="M14.6667 8C14.6667 11.6819 11.6819 14.6667 8 14.6667C4.3181 14.6667 1.33333 11.6819 1.33333 8C1.33333 4.3181 4.3181 1.33333 8 1.33333C9.51802 1.33333 10.9175 1.8407 12.0382 2.6951L12.9882 1.74516C11.6204 0.652942 9.88645 0 8 0C3.58172 0 0 3.58172 0 8C0 12.4183 3.58172 16 8 16C12.4183 16 16 12.4183 16 8C16 7.46258 15.947 6.93755 15.846 6.42982L14.656 7.61978C14.6631 7.74562 14.6667 7.87239 14.6667 8Z" fill="#004488"/>
<path d="M7.81353 9.76734L4.96873 6.96868L4 7.91499L7.81353 11.6667L16 3.61298L15.0381 2.66667L7.81353 9.76734Z" fill="#004488"/>
</svg>
