<svg width="24" height="24" viewBox="0 0 24 24" fill="none" xmlns="http://www.w3.org/2000/svg">
<path fill-rule="evenodd" clip-rule="evenodd" d="M4.43613 9.97278C4.86548 9.80702 5.34791 10.0207 5.51368 10.45C5.83694 11.2874 6.60362 12.0917 7.75653 12.6957C8.90167 13.2956 10.3749 13.6669 12 13.6669C13.6251 13.6669 15.0983 13.2956 16.2434 12.6957C17.3963 12.0917 18.163 11.2874 18.4863 10.45C18.6521 10.0207 19.1345 9.80702 19.5638 9.97278C19.9932 10.1385 20.2069 10.621 20.0411 11.0503C19.5318 12.3695 18.414 13.4402 17.0168 14.1721C15.6119 14.908 13.8696 15.3335 12 15.3335C10.1304 15.3335 8.38803 14.908 6.98313 14.1721C5.586 13.4402 4.46818 12.3695 3.95886 11.0503C3.7931 10.621 4.00678 10.1385 4.43613 9.97278Z" fill="#59595E"/>
<path fill-rule="evenodd" clip-rule="evenodd" d="M11.1667 17.0002V14.0835H12.8334V17.0002C12.8334 17.4604 12.4603 17.8335 12 17.8335C11.5398 17.8335 11.1667 17.4604 11.1667 17.0002Z" fill="#59595E"/>
<path fill-rule="evenodd" clip-rule="evenodd" d="M4.5955 15.0706L6.26217 12.4463L7.73792 13.2208L6.07125 15.8451C5.82451 16.2337 5.29414 16.3752 4.88662 16.1613C4.4791 15.9474 4.34877 15.4591 4.5955 15.0706Z" fill="#59595E"/>
<path fill-rule="evenodd" clip-rule="evenodd" d="M19.4045 15.0706L17.7378 12.4463L16.2621 13.2208L17.9288 15.8451C18.1755 16.2337 18.7059 16.3752 19.1134 16.1613C19.5209 15.9474 19.6512 15.4591 19.4045 15.0706Z" fill="#59595E"/>
</svg>
