<svg width="64" height="20" viewBox="0 0 64 20" fill="none" xmlns="http://www.w3.org/2000/svg">
<path d="M60.2438 3.93266V6.75H61V3H59.8235L58.8144 5.92545L57.8678 3H56.679V6.75H57.4507V3.93266L58.3941 6.75H59.2348L60.2438 3.93266Z" fill="white"/>
<path d="M54.2192 3.66803V6.75H55.0296V3.66803H56.289V3H53V3.66803H54.2192Z" fill="white"/>
<path d="M51 12.8591H47.2362C46.203 12.8591 45.4465 12.6612 44.9483 12.2834C44.2657 11.7436 43.8967 10.4843 43.8967 8.7931C43.8967 7.49775 44.1365 6.54423 44.5609 6.05847C45.1328 5.42879 45.9447 5.14093 47.1439 5.14093H51V3H46.8303C45.5572 3 44.321 3.23388 43.583 3.5937C41.941 4.42129 41 6.38231 41 9.02699C41 11.2399 41.6089 12.949 42.7528 13.9205C43.7122 14.7301 44.69 15 46.7196 15H51V12.8591Z" fill="white"/>
<path d="M4.54883 6.23832H3V8.10934H4.54883V11.7075C4.47595 14.0103 5.38703 15.0178 7.48251 14.9998H9.25V13.1287H8.28426C7.19096 13.0748 6.95408 12.7509 6.99053 11.2937V8.10934H9.25V6.23832H6.99053V3H4.54883V6.23832Z" fill="white"/>
<path d="M13.4183 3H11V15H13.4183V8.10945H15.3673C16.7569 8.10945 17.1178 8.52324 17.0817 10.0165V15H19.5V9.53073C19.4639 7.13793 18.4352 6.18441 15.8907 6.23838H13.4183V3Z" fill="white"/>
<path d="M26.8606 12.9631H24.8992C23.865 12.9267 23.6511 12.545 23.6511 10.7087V6H21.2617V10.9451C21.1191 13.6176 22.2781 14.9084 24.7388 14.8539H26.8606C26.8072 15.9447 26.7002 16.0538 25.5233 16.1083H21.2617V17.9991H25.5233C28.0553 18.0355 29.25 16.981 29.25 14.6721V6H26.8606V12.9631Z" fill="white"/>
<path d="M31 6.00743V15H33.4404V7.92782H35.553C36.4454 7.90935 36.8096 8.27866 36.8096 9.18345V15H39.25V9.46043C39.25 7.02302 38.1026 5.89664 35.6987 6.00743H31Z" fill="white"/>
</svg>
