<svg width="16" height="16" viewBox="0 0 16 16" fill="none" xmlns="http://www.w3.org/2000/svg">
<path d="M5.33333 6C5.33333 5.63181 5.63181 5.33333 6 5.33333C6.36819 5.33333 6.66667 5.63181 6.66667 6V11.3333C6.66667 11.7015 6.36819 12 6 12C5.63181 12 5.33333 11.7015 5.33333 11.3333V6Z" fill="#DD1111"/>
<path d="M9.33333 6C9.33333 5.63181 9.63181 5.33333 10 5.33333C10.3682 5.33333 10.6667 5.63181 10.6667 6V11.3333C10.6667 11.7015 10.3682 12 10 12C9.63181 12 9.33333 11.7015 9.33333 11.3333V6Z" fill="#DD1111"/>
<path d="M2.66667 4.66667C2.66667 4.29848 2.36819 4 2 4C1.63181 4 1.33333 4.29848 1.33333 4.66667V13.3333C1.33333 14.8061 2.52724 16 4 16H12C13.4728 16 14.6667 14.8061 14.6667 13.3333V4.66667C14.6667 4.29848 14.3682 4 14 4C13.6318 4 13.3333 4.29848 13.3333 4.66667V13.3333C13.3333 14.0697 12.7364 14.6667 12 14.6667H4C3.26362 14.6667 2.66667 14.0697 2.66667 13.3333V4.66667Z" fill="#DD1111"/>
<path d="M4 0C3.26363 0 2.66667 0.596965 2.66667 1.33333H0.666667C0.298462 1.33333 0 1.6318 0 2C0 2.3682 0.298462 2.66667 0.666667 2.66667H15.3333C15.7015 2.66667 16 2.3682 16 2C16 1.6318 15.7015 1.33333 15.3333 1.33333H13.3333C13.3333 0.596965 12.7364 0 12 0H4Z" fill="#DD1111"/>
</svg>
