<svg width="24" height="24" viewBox="0 0 24 24" fill="none" xmlns="http://www.w3.org/2000/svg">
<ellipse cx="12.0002" cy="12" rx="2.91667" ry="3.75" fill="#59595E"/>
<circle cx="12.4167" cy="9.91667" r="0.416667" fill="white"/>
<path fill-rule="evenodd" clip-rule="evenodd" d="M7.15879 9.1578C5.95054 9.9633 5.33317 10.9846 5.33317 12C5.33317 13.0154 5.95054 14.0366 7.15879 14.8421C8.36121 15.6437 10.0703 16.1666 11.9998 16.1666C13.9293 16.1666 15.6385 15.6437 16.8409 14.8421C18.0491 14.0366 18.6665 13.0154 18.6665 12C18.6665 10.9846 18.0491 9.9633 16.8409 9.1578C15.6385 8.35619 13.9293 7.83329 11.9998 7.83329C10.0703 7.83329 8.36121 8.35619 7.15879 9.1578ZM6.23429 7.77105C7.74633 6.76302 9.7872 6.16663 11.9998 6.16663C14.2125 6.16663 16.2533 6.76302 17.7654 7.77105C19.2716 8.7752 20.3332 10.2539 20.3332 12C20.3332 13.746 19.2716 15.2247 17.7654 16.2289C16.2533 17.2369 14.2125 17.8333 11.9998 17.8333C9.7872 17.8333 7.74633 17.2369 6.23429 16.2289C4.72807 15.2247 3.6665 13.746 3.6665 12C3.6665 10.2539 4.72807 8.7752 6.23429 7.77105Z" fill="#59595E"/>
</svg>
